<svg width="24" height="25" viewBox="0 0 24 25" fill="none" xmlns="http://www.w3.org/2000/svg">
<mask id="mask0_475_9530" style="mask-type:alpha" maskUnits="userSpaceOnUse" x="0" y="0" width="24" height="25">
<rect y="0.5" width="24" height="24" fill="#1B1B1F"/>
</mask>
<g mask="url(#mask0_475_9530)">
<path d="M5.07505 21.6858C4.44172 21.6858 3.90438 21.4652 3.46305 21.0239C3.02105 20.582 2.80005 20.0445 2.80005 19.4113V5.56451C2.80005 4.93133 3.02105 4.39378 3.46305 3.95189C3.90438 3.51065 4.44172 3.29004 5.07505 3.29004H18.925C19.5584 3.29004 20.0961 3.51065 20.538 3.95189C20.9794 4.39378 21.2001 4.93133 21.2001 5.56451V19.4113C21.2001 20.0445 20.9794 20.582 20.538 21.0239C20.0961 21.4652 19.5584 21.6858 18.925 21.6858H5.07505ZM5.07505 19.4113H18.925V5.56451H5.07505V19.4113Z" fill="#131010"/>
</g>
</svg>
