<svg width="25" height="25" viewBox="0 0 25 25" fill="none" xmlns="http://www.w3.org/2000/svg">
<path d="M12.501 2.08325C18.2542 2.08325 22.9177 6.74679 22.9177 12.4999C22.9177 18.253 18.2542 22.9166 12.501 22.9166C10.6602 22.9196 8.85172 22.4324 7.26145 21.5051L2.08853 22.9166L3.49687 17.7416C2.56884 16.1508 2.08129 14.3416 2.08437 12.4999C2.08437 6.74679 6.74791 2.08325 12.501 2.08325ZM8.95103 7.60409L8.7427 7.61242C8.60782 7.62063 8.47601 7.65607 8.3552 7.71659C8.2422 7.78057 8.13905 7.86057 8.04895 7.95409C7.92395 8.07179 7.85312 8.17388 7.77707 8.27283C7.39178 8.77378 7.18434 9.38879 7.18749 10.0208C7.18957 10.5312 7.32291 11.028 7.53124 11.4926C7.95728 12.4322 8.65832 13.427 9.58332 14.3489C9.80624 14.5708 10.025 14.7937 10.2604 15.001C11.4098 16.0129 12.7794 16.7427 14.2604 17.1322L14.8521 17.2228C15.0448 17.2333 15.2375 17.2187 15.4312 17.2093C15.7346 17.1936 16.0308 17.1115 16.2989 16.9687C16.4354 16.8984 16.5685 16.8219 16.6979 16.7395C16.6979 16.7395 16.7427 16.7103 16.8281 16.6458C16.9687 16.5416 17.0552 16.4676 17.1719 16.3458C17.2583 16.2562 17.3333 16.151 17.3906 16.0312C17.4719 15.8614 17.5531 15.5374 17.5864 15.2676C17.6114 15.0614 17.6042 14.9489 17.601 14.8791C17.5969 14.7676 17.5042 14.652 17.4031 14.603L16.7969 14.3312C16.7969 14.3312 15.8906 13.9364 15.3364 13.6843C15.2785 13.659 15.2163 13.6445 15.1531 13.6416C15.0818 13.6343 15.0098 13.6423 14.9419 13.6651C14.874 13.6879 14.8118 13.725 14.7594 13.7739C14.7542 13.7718 14.6844 13.8312 13.9312 14.7437C13.888 14.8018 13.8285 14.8457 13.7602 14.8698C13.6919 14.8939 13.618 14.8971 13.5479 14.8791C13.48 14.8609 13.4136 14.8379 13.3489 14.8103C13.2198 14.7562 13.175 14.7353 13.0864 14.6978C12.4886 14.4369 11.9351 14.0844 11.4458 13.653C11.3146 13.5385 11.1927 13.4135 11.0677 13.2926C10.6579 12.9002 10.3007 12.4562 10.0052 11.9718L9.94374 11.8728C9.8996 11.8063 9.86391 11.7346 9.83749 11.6593C9.79791 11.5062 9.90103 11.3833 9.90103 11.3833C9.90103 11.3833 10.1542 11.1062 10.2719 10.9562C10.3864 10.8103 10.4833 10.6687 10.5458 10.5676C10.6687 10.3697 10.7073 10.1666 10.6427 10.0093C10.351 9.29679 10.0489 8.58742 9.73853 7.88325C9.67707 7.74367 9.49478 7.64367 9.32916 7.62388C9.27291 7.61763 9.21666 7.61138 9.16041 7.60721C9.02052 7.60026 8.88034 7.60165 8.74061 7.61138L8.94999 7.60304L8.95103 7.60409Z" fill="white"/>
</svg>
