<svg width="25" height="25" viewBox="0 0 25 25" fill="none" xmlns="http://www.w3.org/2000/svg">
<path d="M15.7011 2.08325H9.30942C3.47192 2.08325 2.08337 3.47179 2.08337 9.29888V15.6905C2.08337 21.527 3.4615 22.9166 9.299 22.9166H15.6907C21.5271 22.9166 22.9167 21.5385 22.9167 15.701V9.30929C22.9167 3.47179 21.5386 2.08325 15.7011 2.08325ZM18.9021 16.9478H17.3823C16.8073 16.9478 16.6344 16.4822 15.6032 15.451C14.7032 14.5833 14.323 14.4749 14.0948 14.4749C13.7802 14.4749 13.6938 14.5614 13.6938 14.9958V16.3624C13.6938 16.7322 13.574 16.9489 12.6084 16.9489C11.6712 16.8859 10.7625 16.6012 9.95691 16.1182C9.15137 15.6352 8.47209 14.9677 7.97504 14.1708C6.79501 12.702 5.97394 10.9782 5.57712 9.13638C5.57712 8.90825 5.66358 8.702 6.09796 8.702H7.61671C8.00733 8.702 8.14796 8.87596 8.30108 9.277C9.03858 11.4478 10.2969 13.3353 10.8073 13.3353C11.0032 13.3353 11.0886 13.2489 11.0886 12.7603V10.5249C11.024 9.50513 10.4823 9.41867 10.4823 9.04992C10.4893 8.95266 10.5339 8.86193 10.6066 8.79698C10.6793 8.73203 10.7745 8.69796 10.8719 8.702H13.2594C13.5855 8.702 13.6938 8.8645 13.6938 9.25513V12.2718C13.6938 12.5978 13.8344 12.7062 13.9323 12.7062C14.1282 12.7062 14.2792 12.5978 14.6375 12.2395C15.4072 11.3009 16.036 10.2552 16.5042 9.13534C16.5521 9.00082 16.6426 8.88565 16.762 8.80741C16.8815 8.72917 17.0232 8.69215 17.1657 8.702H18.6855C19.1407 8.702 19.2375 8.93013 19.1407 9.25513C18.5881 10.4931 17.9043 11.6682 17.1011 12.7603C16.9375 13.0103 16.8719 13.1405 17.1011 13.4333C17.2521 13.6614 17.7844 14.1062 18.1427 14.5291C18.6635 15.0485 19.0959 15.6495 19.423 16.3083C19.5532 16.7312 19.3355 16.9478 18.9021 16.9478Z" fill="white"/>
</svg>
