<svg width="22" height="17" viewBox="0 0 22 17" fill="none" xmlns="http://www.w3.org/2000/svg">
<path d="M12.6889 16.8086C12.5634 16.6859 12.4929 16.5195 12.4929 16.3461C12.4929 16.1726 12.5634 16.0063 12.6889 15.8836L19.5867 9.14662L1.54523 9.14662C1.36748 9.14662 1.197 9.07766 1.07131 8.95492C0.945612 8.83218 0.875 8.66571 0.875 8.49212C0.875 8.31854 0.945612 8.15207 1.07131 8.02933C1.197 7.90658 1.36748 7.83763 1.54523 7.83763L19.5867 7.83763L12.6889 1.10068C12.5706 0.97661 12.5061 0.812509 12.5092 0.64295C12.5122 0.473391 12.5826 0.311612 12.7054 0.191697C12.8282 0.071782 12.9938 0.00309325 13.1675 0.000101588C13.3411 -0.00289008 13.5092 0.0600488 13.6362 0.175659L21.679 8.02961C21.8045 8.15233 21.875 8.31868 21.875 8.49212C21.875 8.66557 21.8045 8.83192 21.679 8.95464L13.6362 16.8086C13.5105 16.9312 13.3402 17 13.1626 17C12.985 17 12.8146 16.9312 12.6889 16.8086Z" fill="#201A1A"/>
</svg>
