<svg width="24" height="25" viewBox="0 0 24 25" fill="none" xmlns="http://www.w3.org/2000/svg">
<mask id="mask0_475_9522" style="mask-type:alpha" maskUnits="userSpaceOnUse" x="0" y="0" width="24" height="25">
<rect y="0.5" width="24" height="24" fill="#938F96"/>
</mask>
<g mask="url(#mask0_475_9522)">
<path d="M12.5 23.4817C10.9667 23.4817 9.66667 22.8955 8.6 21.7231C7.53333 20.5508 7 19.122 7 17.4367V5.89633C7 4.68734 7.39167 3.65237 8.175 2.79142C8.95833 1.93047 9.9 1.5 11 1.5C12.1 1.5 13.0417 1.93047 13.825 2.79142C14.6083 3.65237 15 4.68734 15 5.89633V16.3376C15 17.107 14.7583 17.7573 14.275 18.2885C13.7917 18.8197 13.2 19.0853 12.5 19.0853C11.8 19.0853 11.2083 18.8197 10.725 18.2885C10.2417 17.7573 10 17.107 10 16.3376V5.89633H11.5V16.3376C11.5 16.649 11.5958 16.9101 11.7875 17.1207C11.9792 17.3314 12.2167 17.4367 12.5 17.4367C12.7833 17.4367 13.0208 17.3314 13.2125 17.1207C13.4042 16.9101 13.5 16.649 13.5 16.3376V5.89633C13.5 5.12697 13.2583 4.47668 12.775 3.94546C12.2917 3.41424 11.7 3.14862 11 3.14862C10.3 3.14862 9.70833 3.41424 9.225 3.94546C8.74167 4.47668 8.5 5.12697 8.5 5.89633V17.4367C8.5 18.6457 8.89167 19.6807 9.675 20.5416C10.4583 21.4026 11.4 21.833 12.5 21.833C13.6 21.833 14.5417 21.4026 15.325 20.5416C16.1083 19.6807 16.5 18.6457 16.5 17.4367V5.89633H18V17.4367C18 19.122 17.4667 20.5508 16.4 21.7231C15.3333 22.8955 14.0333 23.4817 12.5 23.4817Z" fill="#938F96"/>
</g>
</svg>
