<svg width="25" height="25" viewBox="0 0 25 25" fill="none" xmlns="http://www.w3.org/2000/svg">
<g clip-path="url(#clip0_475_9548)">
<path fill-rule="evenodd" clip-rule="evenodd" d="M20.6011 4.61455C20.8585 4.5062 21.1403 4.46884 21.417 4.50634C21.6938 4.54383 21.9554 4.65483 22.1747 4.82776C22.394 5.00069 22.563 5.22925 22.664 5.48963C22.765 5.75002 22.7943 6.03271 22.749 6.3083L20.3865 20.6385C20.1573 22.0208 18.6407 22.8135 17.373 22.125C16.3125 21.5489 14.7375 20.6614 13.3209 19.7354C12.6125 19.2718 10.4428 17.7875 10.7094 16.7312C10.9386 15.8281 14.5844 12.4343 16.6678 10.4166C17.4855 9.62392 17.1125 9.16663 16.1469 9.8958C13.748 11.7062 9.899 14.4593 8.62609 15.2343C7.50317 15.9177 6.91775 16.0343 6.21775 15.9177C4.94067 15.7052 3.7563 15.376 2.78963 14.975C1.48338 14.4333 1.54692 12.6375 2.78859 12.1145L20.6011 4.61455Z" fill="white"/>
</g>
<defs>
<clipPath id="clip0_475_9548">
<rect width="25" height="25" fill="white"/>
</clipPath>
</defs>
</svg>
