<svg width="22" height="17" viewBox="0 0 22 17" fill="none" xmlns="http://www.w3.org/2000/svg">
<path d="M9.31105 16.8086C9.43656 16.6859 9.50706 16.5195 9.50706 16.3461C9.50706 16.1726 9.43656 16.0063 9.31105 15.8836L2.41325 9.14662L20.4548 9.14662C20.6325 9.14662 20.803 9.07766 20.9287 8.95492C21.0544 8.83218 21.125 8.66571 21.125 8.49212C21.125 8.31854 21.0544 8.15207 20.9287 8.02933C20.803 7.90658 20.6325 7.83763 20.4548 7.83763L2.41325 7.83763L9.31105 1.10068C9.42944 0.97661 9.49389 0.812509 9.49083 0.64295C9.48777 0.473391 9.41743 0.311612 9.29463 0.191697C9.17183 0.071782 9.00616 0.00309325 8.83253 0.000101588C8.65889 -0.00289008 8.49084 0.0600488 8.36379 0.175659L0.321012 8.02961C0.195499 8.15233 0.125 8.31868 0.125 8.49212C0.125 8.66557 0.195499 8.83192 0.321012 8.95464L8.36379 16.8086C8.48946 16.9312 8.65981 17 8.83742 17C9.01503 17 9.18538 16.9312 9.31105 16.8086Z" fill="#201A1A"/>
</svg>
